<?xml version="1.0" encoding="UTF-8"?>
<svg width="20px" height="20px" viewBox="0 0 20 20" version="1.1" xmlns="http://www.w3.org/2000/svg" xmlns:xlink="http://www.w3.org/1999/xlink">
    <!-- Generator: Sketch 62 (91390) - https://sketch.com -->
    <title>朋友圈@3x</title>
    <desc>Created with Sketch.</desc>
    <g id="页面-1" stroke="none" stroke-width="1" fill="none" fill-rule="evenodd">
        <g id="M站-文章" transform="translate(-64.000000, -1771.000000)" fill-rule="nonzero">
            <g id="编组-10" transform="translate(15.000000, 1741.000000)">
                <g id="朋友圈" transform="translate(49.000000, 30.000000)">
                    <path d="M9.96244024,0.0197018876 C9.58125769,0.0197018876 9.20685314,0.0427173428 8.83850662,0.086066843 C7.93578947,0.188183933 7.07051279,0.413695652 6.25710154,0.741200311 C6.25710154,0.741200311 12.9641566,7.37858836 13.1427436,7.62532788 L13.1427436,0.547220012 C12.9428295,0.4791916 12.7386698,0.417941212 12.5327721,0.360886719 C11.7135263,0.140464747 10.8515765,0.0197018876 9.96244024,0.0197018876 Z" id="路径" fill="#FF9594"></path>
                    <path d="M16.9681748,2.90318789 C16.6993136,2.63432669 16.4176413,2.38579954 16.1267081,2.15532228 C15.4154388,1.59031405 14.6445577,1.13603819 13.8387686,0.793959555 C13.8387686,0.793959555 13.8881265,10.227067 13.8387686,10.5283038 L18.8451631,5.52287757 C18.7506323,5.3325832 18.6501624,5.14529733 18.5439015,4.96129559 C18.1193198,4.2261915 17.5969907,3.5310355 16.9681748,2.90318789 L16.9681748,2.90318789 Z" id="路径" fill="#9C9EFA"></path>
                    <path d="M19.1657904,6.30823331 C19.1657904,6.30823331 12.5302893,13.0144691 12.2818118,13.1930809 L19.3607142,13.1930809 C19.4287426,12.9931916 19.4900923,12.7889574 19.5461537,12.5830597 C19.7673205,11.7620015 19.8882571,10.9026835 19.8882571,10.0127279 C19.8882571,9.63233982 19.8643975,9.25714077 19.8209239,8.88876941 C19.7188564,7.98602744 19.494313,7.12077557 19.1657904,6.30823331 L19.1657904,6.30823331 Z" id="路径" fill="#90B0F8"></path>
                    <path d="M9.32173178,13.9384141 L14.3279773,18.9438651 C14.5186402,18.8495476 14.706213,18.749108 14.8904034,18.6427028 C15.6255572,18.2197598 16.3198442,17.6965865 16.9494794,17.0669762 C17.2173972,16.7989343 17.4650802,16.5164178 17.6964761,16.2255094 C18.260516,15.5140911 18.7158347,14.7441535 19.0577891,13.9375203 C19.0577891,13.9375203 9.62386236,13.9869774 9.32173178,13.9384141 L9.32173178,13.9384141 Z" id="路径" fill="#7EC9F0"></path>
                    <path d="M6.75311306,12.3660888 L6.75311306,19.4449663 C6.95447023,19.5131882 7.15791907,19.5750732 7.36315909,19.63053 C8.183398,19.8517465 9.04360981,19.9725093 9.9336399,19.9725093 C10.31301,19.9725093 10.6882339,19.9486745 11.0558107,19.9061444 C11.9419643,19.8050887 12.8103349,19.5844047 13.6372158,19.2501171 C13.6380352,19.2501419 6.93174973,12.6145911 6.75311306,12.3660888 L6.75311306,12.3660888 Z" id="路径" fill="#6FD384"></path>
                    <path d="M6.04859693,9.41368061 L1.0440149,14.419082 C1.13769051,14.6105795 1.23896346,14.7977817 1.34527647,14.9815081 C1.76819471,15.7183253 2.29136794,16.4125875 2.92102797,17.0414034 C3.18904501,17.3102894 3.47153671,17.5578731 3.76249474,17.7884497 C4.47458337,18.3543021 5.24295681,18.8077586 6.05127834,19.1497131 C6.05127834,19.1497131 6.00015773,9.71576152 6.04859693,9.41368061 L6.04859693,9.41368061 Z" id="路径" fill="#B6E159"></path>
                    <path d="M0.348064392,7.41339705 C0.127692061,8.23363597 0.00692920225,9.09384778 0.00692920225,9.98385304 C0.00692920225,10.363248 0.0307639752,10.7392912 0.0741134753,11.1069177 C0.176255411,12.010479 0.399979498,12.8757805 0.730115902,13.6874538 C0.730115902,13.6874538 7.36494667,6.98121802 7.61337451,6.80337585 L0.533578343,6.80337585 C0.465525112,7.00242103 0.404249879,7.20747455 0.348064392,7.41339705 Z" id="路径" fill="#FFD347"></path>
                    <path d="M4.95703887,1.38781779 C4.22024648,1.81153052 3.52593461,2.33485273 2.8979877,2.96270033 C2.6274382,3.23245533 2.38072351,3.51492219 2.15014691,3.8041671 C1.58513868,4.51556056 1.130838,5.28634229 0.788014533,6.09377002 C0.788014533,6.09377002 10.2236296,6.04356803 10.524916,6.09210654 L5.51939053,1.08668034 C5.32888616,1.18192013 5.14079008,1.28150478 4.95703887,1.38781779 Z" id="路径" fill="#FBA363"></path>
                </g>
            </g>
        </g>
    </g>
</svg>