<?xml version="1.0" encoding="UTF-8"?>
<svg width="20px" height="20px" viewBox="0 0 20 20" version="1.1" xmlns="http://www.w3.org/2000/svg" xmlns:xlink="http://www.w3.org/1999/xlink">
    <!-- Generator: Sketch 62 (91390) - https://sketch.com -->
    <title>形状@3x</title>
    <desc>Created with Sketch.</desc>
    <g id="页面-1" stroke="none" stroke-width="1" fill="none" fill-rule="evenodd">
        <g id="M站-文章" transform="translate(-340.000000, -1771.000000)" fill="#7EA5F0" fill-rule="nonzero">
            <g id="编组-10" transform="translate(15.000000, 1741.000000)">
                <path d="M335,30 C329.477147,30 325,34.4771514 325,39.99999 C325,45.5228486 329.477147,50 335,50 C340.522833,50 345,45.5228486 345,39.99999 C345,34.4771514 340.522833,30 335,30 Z M336.262671,42.3100504 L333.991992,44.5782305 C333.011718,45.5564849 331.408182,45.5564849 330.428027,44.5782305 L330.385527,44.5357899 C329.405312,43.5576955 329.405312,41.9557185 330.385527,40.9762035 L331.974836,39.3910747 C331.966772,39.8578411 332.051793,40.3274688 332.229839,40.7673222 L331.202442,41.7933198 C330.670204,42.3234969 330.670204,43.1885765 331.202442,43.7200342 L331.244923,43.7624348 C331.77718,44.2932723 332.642699,44.2932723 333.175017,43.7624348 L335.446356,41.494855 C335.978614,40.9633172 335.978614,40.0984178 335.446356,39.5675203 L335.403895,39.5250997 C335.320855,39.4421995 335.229191,39.3735662 335.131964,39.3162984 L335.962446,38.4863159 C336.052149,38.5543488 336.139251,38.6277845 336.220811,38.709304 L336.220871,38.709304 L336.262651,38.7510643 C337.241565,39.7292387 337.241565,41.3311956 336.262671,42.3100504 Z M339.576335,39.0003452 L337.987646,40.5861743 C337.99573,40.1193079 337.911349,39.6504405 337.733223,39.2105071 L338.75998,38.1845295 C339.292297,37.653692 339.292297,36.7887325 338.75998,36.2571747 L338.717519,36.2154145 C338.185262,35.6838567 337.319703,35.6838567 336.788826,36.2154145 L334.516766,38.4829943 C333.984448,39.014512 333.984448,39.8794315 334.516766,40.4109894 L334.558586,40.4521093 C334.641567,40.5349695 334.733331,40.6043631 334.830438,40.6609906 L333.999376,41.4916335 C333.910313,41.4228801 333.82331,41.3494645 333.741691,41.2678849 L333.699791,41.226805 C332.719616,40.2473099 332.719616,38.6459733 333.699791,37.6671986 L335.97055,35.3989385 C336.950724,34.4201238 338.55424,34.4201238 339.534415,35.3989385 L339.576955,35.4413791 L339.576955,35.4414391 C340.55723,36.4201738 340.55723,38.0214704 339.576335,39.0003452 Z" id="形状"></path>
            </g>
        </g>
    </g>
</svg>