<svg height="198" viewBox="0 0 295 198" width="295" xmlns="http://www.w3.org/2000/svg"><g fill="none" fill-rule="evenodd" transform="translate(0 -13)"><path d="m7.98701493 14.256h1.25044776v1.7072h6.83343281v1.1968h-6.83343281v2.2352h5.61820891v5.6496h-11.65910444v-5.6496h4.79044777zm5.60059697 9.6096v-3.2736h-9.12298503v3.2736zm-10.42626862 1.9536 1.07432836.5104c-.66925373 1.5312-1.42656716 2.8512-2.30716418 3.9776l-1.03910447-.7568c.88059701-1.0384 1.63791044-2.288 2.27194029-3.7312zm3.83940299.5104c.3522388 1.1616.66925373 2.4288.95104477 3.784l-1.2680597.2816c-.24656716-1.4432-.52835821-2.7104-.86298507-3.8192zm3.68089553-.176c.5283582 1.1968.9862686 2.5168 1.3737313 3.9248l-1.2504477.2816c-.3522388-1.496-.7925373-2.816-1.32089555-3.96zm3.6104478-.352c1.1271641 1.4784 1.9725373 2.7632 2.5713432 3.8544l-1.0567164.7392c-.6164179-1.1968-1.461791-2.4992-2.5361194-3.9424zm5.8119403-8.976h5.7591044v-2.4816h1.3032836v2.4816h5.6886567v1.2144h-5.6886567v2.9216h7.1328358v1.232h-7.1328358v6.2128h4.1564179v-4.6816h1.2152239v6.6704h-1.2152239v-.8096h-9.5985074v.8096h-1.2152239v-6.6704h1.2152239v4.6816h4.1388059v-6.2128h-7.1152239v-1.232h7.1152239v-2.9216h-5.7591044zm17.1716417-2.3056c1.0743284.88 1.9725374 1.7776 2.6946269 2.6576l-.880597.88c-.6516418-.8448-1.5498508-1.7424-2.6946269-2.6928zm-.2641791 4.1184c1.0391045.88 1.9197015 1.7424 2.6241791 2.6048l-.880597.88c-.6340298-.8272-1.5146268-1.7072-2.6065671-2.64zm2.0077612 4.9456 1.1271642.44c-.7925373 2.2176-1.6731343 4.312-2.659403 6.2656l-1.1447761-.4928c1.0391045-2.0416 1.9373134-4.1008 2.6770149-6.2128zm1.497015-6.424h2.4656716c-.281791-.9504-.581194-1.848-.9334328-2.6752l1.3032835-.2112c.2817911.8448.5459702 1.8128.8277612 2.8864h2.2014926v1.232h-.8101493c-.299403 2.3232-.7044776 4.2592-1.1976119 5.808.8453731 1.4608 1.5674627 2.7984 2.1310448 3.9952l-1.0038806.704c-.4931344-1.056-1.0391045-2.1472-1.6555224-3.2736-.8277612 1.7776-2.0253732 3.3792-3.6104478 4.7872l-.7749254-1.0032c1.5146269-1.3552 2.6417911-2.8512 3.3814926-4.4704.0880597-.2112.1761194-.4048.2465671-.616-.7044776-1.232-1.4970149-2.4992-2.36-3.8192l.9862687-.616c.6692537 1.0208 1.2856716 2.0064 1.8492537 2.9392.3522388-1.2848.6340299-2.7632.8453732-4.4352h-3.8922388zm6.9038806-1.408h1.18v11h-1.18zm2.4656716 14.4672h-2.3247761l-.2817911-1.2144c.7573135.0352 1.479403.0704 2.1662687.0704.5283582 0 .7925373-.2816.7925373-.8272v-13.9744h1.2152239v14.3088c0 1.0912-.5283582 1.6368-1.5674627 1.6368zm16.4495522-9.5392v6.2656h-1.2504477v-5.104h-6.9567164v5.1392h-1.2680597v-6.3008zm-5.4949253 2.288h1.2504477v1.2144c-.0704477 1.7072-.6692537 3.08-1.7964179 4.1008-1.1095522.9328-2.9235821 1.672-5.4420895 2.2l-.7220896-1.1264c2.5008955-.4928 4.2444776-1.1264 5.2483582-1.9184.9158209-.8448 1.3913433-1.9184 1.4617911-3.256zm6.481194 7.1104h-3.4167164c-1.0919403 0-1.6379105-.5632-1.6379105-1.672v-3.3792h1.2152239v3.1152c0 .5104.2641791.7744.7925373.7744h2.8179105c.3698507 0 .6340298-.1056.8101492-.2992.2113433-.2464.3522388-.9328.4226866-2.0944l1.162388.3696c-.1056716 1.5136-.3522388 2.4288-.7044776 2.7632-.3170149.2816-.7925373.4224-1.461791.4224zm-8.841194-15.8576h1.2504477v5.72h-1.2504477zm-3.4519403.7392h1.2152238v4.5408h-1.2152238zm8.5946268 1.7424c-.5635821 1.0736-1.2328358 1.9712-1.9901492 2.6752l-.9510448-.88c1.1976119-1.1792 2.0958209-2.6576 2.6770149-4.4176l1.2152239.3168c-.1408955.4048-.281791.792-.4226866 1.1616h5.1955224v1.144zm1.5674627.5456c1.0214926.5984 1.9725373 1.32 2.8531343 2.1648l-.7749253.8976c-.898209-.8976-1.8492538-1.672-2.8707463-2.3232zm7.8197015-2.3584h5.3716418v4.2768h-5.3716418zm4.2092537 3.2032v-2.112h-3.0644776v2.112zm3.1173135-3.2032h5.4773134v4.2768h-5.4773134zm4.3325373 3.2032v-2.112h-3.1701493v2.112zm-13.0856717 2.8336h5.9352239c.3346269-.4576.598806-.9328.8101493-1.4256l1.2152239.1232c-.1761194.4576-.4050747.88-.6516418 1.3024h4.5438806c-.2465672-.44-.5107463-.8448-.7925373-1.1968l1.0743283-.352c.3698508.4928.6868657 1.0032.9686567 1.5488h2.4304478v1.1264h-4.7552239c1.1447761 1.056 2.8531343 1.9008 5.1250746 2.5168l-.5107462 1.0736c-.4402985-.1408-.8453732-.2992-1.2328359-.44v5.1744h-1.1271641v-.7568h-3.2934329v.7568h-1.1271642v-5.544h4.7023881c-1.6907463-.7744-2.9940298-1.7072-3.8746269-2.7808h-2.9764179c-.9862686 1.1264-2.3071641 2.0416-3.9626865 2.7808h4.420597v5.544h-1.1271642v-.7568h-3.0116418v.7568h-1.1095522v-5.192c-.4755224.176-.9510448.3344-1.4441791.4928l-.5811941-1.0384c2.2543284-.6688 3.9802985-1.5312 5.2131344-2.5872h-4.8608956zm2.7826866 7.6032h3.0116418v-2.64h-3.0116418zm6.9567164 0h3.2934329v-2.64h-3.2934329zm7.8020896-13.376h15.6570151v1.2496h-7.6435823v2.6576c2.1838806 1.0912 4.4029853 2.3584 6.6573133 3.8016l-.757313 1.1264c-2.342388-1.5488-4.3149257-2.7456-5.9000003-3.5904v9.9968h-1.2856716v-13.992h-6.7277612zm17.7880601 1.672h7.590746c-.352239-.7744-.774926-1.5312-1.285672-2.2352l1.197612-.44c.493134.7392.951045 1.6368 1.373731 2.6752h6.586866v1.2144h-9.281492l-.158508 3.1328v.0352h7.308955c-.035223 3.4848-.176119 5.72-.405074 6.7056-.352239 1.496-1.215224 2.2704-2.606567 2.3232-.563582 0-1.250448-.0352-2.025374-.0704l-.387462-1.144c.915821.0352 1.673134.0528 2.289552.0528.898209-.0352 1.444179-.6688 1.655522-1.9008.105672-.7392.158508-2.3408.193732-4.7696h-6.164179c-.228956 1.4256-.669254 2.7104-1.303284 3.872-.862985 1.5136-2.060597 2.8864-3.610448 4.136l-.915821-.88c1.866866-1.584 3.117314-3.0448 3.733732-4.4.598806-1.3552.933433-2.8688 1.021492-4.5408.052836-1.1088.08806-1.9536.105672-2.552h-4.913731zm24.05791-2.9568.45791.7568c-.91582.5808-1.408955 1.3376-1.479403 2.2704.070448-.0352.158508-.0352.281792-.0352.317014 0 .563582.088.774925.2816.193731.176.299403.4224.299403.7392s-.105672.5808-.299403.7744c-.211343.176-.457911.2816-.757314.2816-.862985 0-1.285671-.5808-1.285671-1.7072 0-1.5312.669254-2.6576 2.007761-3.3616zm-3.487164 0 .475522.7568c-.933433.5808-1.426567 1.3376-1.479403 2.2704.070448-.0352.158508-.0352.281791-.0352.299403 0 .563582.088.774926.2816.193731.176.299403.4224.299403.7392s-.105672.5808-.299403.7744c-.211344.176-.475523.2816-.774926.2816-.845373 0-1.268059-.5808-1.268059-1.7072 0-1.5312.651641-2.6576 1.990149-3.3616zm40.75403 0c.845373 0 1.268059.5632 1.268059 1.7072 0 1.5136-.669253 2.64-1.990149 3.3616l-.475522-.7568c.915821-.5984 1.408955-1.3552 1.479403-2.2704-.070448.0176-.17612.0352-.281791.0352-.317015 0-.563582-.1056-.757314-.2816-.211343-.1936-.317015-.44-.317015-.7392 0-.3168.08806-.5808.299403-.7744.193732-.1936.457911-.2816.774926-.2816zm-3.469553 0c.845374 0 1.26806.5632 1.26806 1.7072 0 1.5136-.669254 2.64-1.990149 3.3616l-.475522-.7568c.91582-.5984 1.408955-1.3552 1.479403-2.2704-.070448.0176-.17612.0352-.281792.0352-.317014 0-.563582-.1056-.774925-.2816-.211343-.1936-.299403-.44-.299403-.7392 0-.3168.08806-.5808.299403-.7744.193731-.1936.457911-.2816.774925-.2816zm13.191344.7392 1.056716.6336c-.810149 1.4784-1.63791 2.6928-2.44806 3.6256-.880597 1.0032-2.042985 2.0064-3.487164 3.0272l-.686865-1.1088c1.197612-.704 2.27194-1.6016 3.222985-2.7104.845373-.968 1.63791-2.1296 2.342388-3.4672zm.440298 7.8144h-3.54v-1.2144h10.848955c-.052835 2.2-.176119 3.9776-.36985 5.3504-.193732 1.3376-.510747 2.288-.968657 2.816-.45791.5104-1.18.792-2.183881.8448h-3.046865l-.334627-1.2144c.968657.0352 1.884477.0528 2.747463.0528 1.109552 0 1.849253-.4224 2.201492-1.232.352239-.8448.581194-2.64.686866-5.4032h-4.80806c-.405075 1.936-.986269 3.4496-1.72597 4.576-.862985 1.232-2.166269 2.3232-3.909851 3.3088l-.774925-1.0032c1.567462-.8448 2.747462-1.7952 3.54-2.8336.739701-1.0208 1.285671-2.376 1.63791-4.048zm4.667164-8.0608c.986269 2.6928 2.782687 4.8224 5.371642 6.3712l-.845373.9856c-2.677015-1.7424-4.561492-3.9952-5.618209-6.7584zm9.70418 3.5904h10.549552v3.5552h-10.549552zm9.334328 2.464v-1.3728h-8.119105v1.3728zm-4.26209-6.2304c.281791.4576.54597.9504.792538 1.5136h7.044776v1.1968h-15.287164v-1.1968h6.851044c-.264179-.4576-.54597-.8976-.845373-1.2848zm-7.837313 11.7744h7.71403v-.6864c1.09194-.4224 2.377612-.9328 3.857015-1.5488h-9.862687v-1.144h12.363582v.9152c-1.479403.6864-3.187761 1.3904-5.107462 2.1296v.3344h7.097611v1.1616h-7.097611v1.6368c0 1.056-.528359 1.6016-1.567463 1.6016h-2.483284l-.334627-1.1616c.986269.0528 1.761194.088 2.324777.088.528358 0 .810149-.2992.810149-.8976v-1.2672h-7.71403zm23.987463.88v1.1968c-1.761194.6688-3.751344 1.1968-6.005672 1.6016l-.158508-1.232c2.36-.3872 4.402986-.8976 6.16418-1.5664zm-3.258209-12.6368 1.197612.4576c-.880597 2.288-1.796418 4.1008-2.712239 5.4736.774925-.1056 1.549851-.2288 2.324776-.3872.317015-.6336.63403-1.2848.968657-1.9712l1.127164.44c-1.514627 2.9744-2.765075 5.104-3.786567 6.3712 1.268059-.264 2.536119-.616 3.804179-1.0736v1.144c-1.831642.6336-3.592836 1.056-5.283582 1.3024l-.334627-1.1616c.228955-.088.422686-.2112.563582-.352.63403-.704 1.408955-1.8832 2.324776-3.5376-.968657.176-1.937313.352-2.923582.4928l-.299403-1.1616c.193731-.0704.369851-.2288.528358-.4576.951045-1.6192 1.796418-3.4848 2.500896-5.5792zm11.535821 8.9232v7.0224h-1.250448v-.968h-4.790448v.968h-1.215224v-7.0224zm-6.040896 4.84h4.790448v-3.6432h-4.790448zm1.81403-13.64h1.197612c1.039104 2.1648 2.588955 3.96 4.63194 5.368l-.739701 1.0736c-1.866866-1.3376-3.363881-3.08-4.491045-5.2624-1.26806 2.2176-2.782687 3.9952-4.526269 5.3328l-.739701-1.0384c1.902089-1.4256 3.45194-3.256 4.667164-5.4736zm-2.289552 5.4208h5.671044v1.1792h-5.671044zm21.909253-1.5664c-.105671.44-.193731.8448-.299403 1.232.299403 1.8304.686866 3.4496 1.162388 4.8224.528359-1.7424.81015-3.7664.862986-6.0544zm.352239 7.4624c-.475522-1.2848-.880597-2.7632-1.215224-4.4176-.317015.8448-.651642 1.584-1.00388 2.2528l-.704478-.88c1.021493-2.0944 1.72597-4.9104 2.095821-8.448l1.109552.1936c-.123283.9504-.264179 1.8304-.405074 2.6576h3.293432v1.1792h-.704477c-.070448 2.992-.510746 5.5264-1.338508 7.6208.651642 1.4432 1.426568 2.5696 2.324776 3.3792l-.722089 1.0736c-.827761-.8096-1.549851-1.8832-2.148657-3.2208-.669254 1.3024-1.514627 2.3936-2.500895 3.2736l-.669254-1.056c1.09194-.9328 1.954925-2.1296 2.588955-3.608zm-4.438209 3.6432-.528358-1.056c.176119-.1056.299403-.2816.334627-.4928v-3.2032h-1.866866v.792c-.035224 2.2-.598806 3.8368-1.673134 4.928l-.933433-.8096c.933433-.9504 1.408955-2.3232 1.426567-4.1184v-1.936h4.17403v3.9424c.493134-.44 1.003881-.9152 1.532239-1.4432l.264179 1.0736c-.898209.9504-1.81403 1.7248-2.729851 2.3232zm-1.549851-15.0656h1.074329v3.9952h1.232836v-3.0448h1.039104v4.136h-5.635821v-4.136h1.056717v3.0448h1.232835zm-4.033134.0528 1.09194.5104c-.757313 1.8832-1.972537 3.5552-3.645671 5.016l-.387463-1.232c1.338508-1.2496 2.324776-2.6752 2.941194-4.2944zm.105672 4.7168 1.056716.5104c-.246567.6688-.54597 1.32-.898209 1.9184v8.976h-1.18v-7.2688c-.475522.5808-1.00388 1.1264-1.585074 1.6544l-.369851-1.2144c1.373731-1.3376 2.36-2.8512 2.976418-4.576zm1.602686 1.8832h5.494926v1.1264h-5.494926zm15.075821-.3696c-.528358.7744-1.109552 1.5312-1.743582 2.2352l-.405074-1.3552c1.72597-2.1296 2.976417-4.576 3.768955-7.3216l1.18.5456c-.422687 1.3552-.933433 2.6224-1.549851 3.8192v11.968h-1.250448zm2.729851-3.96h5.424478c-.26418-.704-.563582-1.3728-.915821-2.0416l1.215224-.3344c.36985.7744.651641 1.4784.862985 2.1296l-.669254.2464h5.547761v1.1968h-11.465373zm1.620298 2.6224h8.330448v1.144h-8.330448zm0 2.4816h8.330448v1.1616h-8.330448zm8.647463 2.6048v6.1072h-1.232836v-.9504h-6.516418v.9504h-1.232835v-6.1072zm-7.749254 3.96h6.516418v-2.7808h-6.516418zm13.402687-14.1856 1.250448.1056c-.211344 1.232-.422687 2.3936-.63403 3.4496h3.046866v.7216c-.158508 2.7808-.739702 5.2096-1.725971 7.2688 1.021493.792 1.849254 1.5136 2.500896 2.1472l-.862985 1.0032c-.598806-.6336-1.35612-1.3024-2.236717-2.0416-.880597 1.4608-2.007761 2.7104-3.36388 3.7488l-.862985-1.056c1.338507-.968 2.412836-2.1296 3.240597-3.5024-.810149-.6512-1.72597-1.3376-2.712239-2.0592.54597-1.5488 1.021493-3.2208 1.444179-5.016h-1.866866v-1.2144h2.131045c.246567-1.1616.457911-2.3408.651642-3.5552zm.915821 10.7712c.845373-1.7424 1.338507-3.7488 1.497015-6.0016h-2.060597c-.422687 1.8656-.862985 3.4144-1.320896 4.6464.669254.4752 1.303284.9328 1.884478 1.3552zm3.346269-3.1856h3.980298v-2.2176c.951045-.8272 1.849254-1.8304 2.712239-3.0272h-6.181791v-1.232h7.62597v1.232c-.845373 1.2144-1.81403 2.3584-2.870746 3.4144v1.8304h3.592836v1.232h-3.592836v5.632c0 1.1264-.475523 1.6896-1.391344 1.6896h-2.536119l-.334627-1.1968c.72209 0 1.514627.0176 2.36.0176.405075 0 .616418-.2992.616418-.8976v-5.2448h-3.980298zm10.901791-4.9632h4.843283c.105672-.7744.193732-1.584.281791-2.4112h1.26806c-.08806.8448-.176119 1.6544-.281791 2.4112h9.140597v1.232h-9.316717c-.158507.9504-.317014 1.8304-.493134 2.64h8.066269v1.1088c-.704478 1.936-1.831642 3.608-3.363881 5.016 1.461791 1.1088 3.258209 1.936 5.371642 2.4992l-.63403 1.1616c-2.307164-.6688-4.209254-1.6192-5.706268-2.8336-1.549851 1.1616-3.434329 2.1296-5.618209 2.8864l-.669254-1.1968c2.131045-.6512 3.909851-1.496 5.35403-2.5168-1.391344-1.3728-2.377612-3.0272-2.958806-4.9456h-.123284c-.211343.8448-.45791 1.6016-.704477 2.2704-.915821 2.3232-2.289553 4.3824-4.121195 6.2128l-.792537-1.0208c1.655523-1.7072 2.90597-3.608 3.751343-5.6848.563583-1.5136 1.021493-3.3792 1.373732-5.5968h-4.667164zm6.463582 5.0512c.598806 1.6368 1.514627 3.0272 2.747462 4.1712 1.35612-1.1968 2.342388-2.5872 2.958806-4.1712zm-250.8556719 41.5536c2.2543283 0 3.4871641.9328 3.7337313 2.8336h-1.3737313c-.1232836-.5632-.3522388-.9856-.7044777-1.232-.3874626-.2816-.9510447-.4224-1.6731343-.4224-.6340298 0-1.1271642.1056-1.479403.352-.3874627.2288-.581194.5456-.581194.9504 0 .3872.2465672.7216.7749254.9856.3346268.1584.9686567.352 1.8844776.5984 1.0919403.264 1.8668657.5456 2.342388.8448.7220896.4576 1.0919403 1.0736 1.0919403 1.8656 0 1.8656-1.2856716 2.816-3.8570149 2.816-2.3952239 0-3.6985074-1.056-3.9098507-3.1504h1.3737313c.1056717.7216.3698508 1.232.7573135 1.5488.3874626.2816.9686567.4224 1.743582.4224 1.6202985 0 2.4480597-.528 2.4480597-1.5488 0-.5104-.2994029-.8976-.862985-1.1792-.299403-.1408-.9510448-.3344-1.9373135-.5808-1.0743283-.264-1.8316418-.528-2.2543283-.8096-.7044776-.4224-1.0391045-1.0032-1.0391045-1.7776s.3346269-1.3728 1.0214925-1.8304c.6340299-.4576 1.479403-.6864 2.5008956-.6864zm9.6337313 0c1.3032836 0 2.2543284.3344 2.8883582 1.0208.5283582.5984.8101493 1.4256.8101493 2.4816v5.8432h-1.3208956v-1.5312c-.3522388.4928-.8277612.8976-1.3913432 1.2144-.6692538.3696-1.4265672.5632-2.2719403.5632-.9158209 0-1.6379105-.2288-2.1838806-.6864-.5635821-.4752-.8453732-1.0912-.8453732-1.8304 0-1.0384.4050747-1.8128 1.2504478-2.3408.7397015-.4928 1.7964179-.7568 3.1701492-.7744l2.1838806-.0352v-.4752c0-1.5312-.7925373-2.288-2.3776119-2.288-.6692537 0-1.2152239.1232-1.6379104.4048-.4755224.2816-.7749254.7216-.9158209 1.3024l-1.3913433-.1056c.1937313-.9504.6692537-1.672 1.4089552-2.1296.6692537-.4224 1.5322388-.6336 2.6241791-.6336zm2.2895522 4.9808-2.0958209.0352c-2.042985.0352-3.0644776.704-3.0644776 2.024 0 .4224.1585075.7568.5107463 1.0384.3522388.264.8101493.4048 1.3737313.4048.8629851 0 1.6202986-.2816 2.2895523-.8448.6516418-.5456.9862686-1.1792.9862686-1.8832zm7.2385075-8.2016h1.7435821v1.2144h-1.5674627c-.3874627 0-.6868657.088-.8629851.2992-.1761194.1936-.2641791.5104-.2641791.9504v1.0032h2.5713433v1.1792h-2.5713433v7.92h-1.4089552v-7.92h-2.2895522v-1.1792h2.2895522v-1.0384c0-.7744.1937313-1.3552.581194-1.7776.4050747-.44 1.0038806-.6512 1.778806-.6512zm6.8862687 3.2208c1.3032835 0 2.2543283.3344 2.8883582 1.0208.5283582.5984.8101492 1.4256.8101492 2.4816v5.8432h-1.3208955v-1.5312c-.3522388.4928-.8277612.8976-1.3913433 1.2144-.6692537.3696-1.4265671.5632-2.2719403.5632-.9158209 0-1.6379104-.2288-2.1838806-.6864-.5635821-.4752-.8453731-1.0912-.8453731-1.8304 0-1.0384.4050746-1.8128 1.2504477-2.3408.7397015-.4928 1.796418-.7568 3.1701493-.7744l2.1838806-.0352v-.4752c0-1.5312-.7925373-2.288-2.3776119-2.288-.6692538 0-1.2152239.1232-1.6379105.4048-.4755224.2816-.7749254.7216-.9158209 1.3024l-1.3913433-.1056c.1937314-.9504.6692538-1.672 1.4089553-2.1296.6692537-.4224 1.5322388-.6336 2.6241791-.6336zm2.2895522 4.9808-2.0958209.0352c-2.0429851.0352-3.0644776.704-3.0644776 2.024 0 .4224.1585075.7568.5107463 1.0384.3522388.264.8101492.4048 1.3737313.4048.8629851 0 1.6202985-.2816 2.2895522-.8448.6516418-.5456.9862687-1.1792.9862687-1.8832zm7.5907463-4.9808c.4931343 0 .9158209.0704 1.2504477.2112v1.408c-.4579104-.1408-.9158209-.1936-1.3561194-.1936-.7044776 0-1.3032836.2992-1.7788059.9328-.4931344.5984-.7220896 1.32-.7220896 2.1648v4.8224h-1.3913433v-9.0992h1.3913433v1.584c.2465672-.528.5635821-.9504.9510448-1.2496.4755224-.3872 1.0214925-.5808 1.6555224-.5808zm3.5928358-3.1856c.299403 0 .5459701.088.7573134.2992.2113433.176.3170149.4224.3170149.7392 0 .2992-.1056716.5456-.3170149.7568-.2113433.1936-.4579104.2992-.7573134.2992s-.5459702-.1056-.7573134-.2992c-.2113433-.2112-.299403-.4576-.299403-.7568 0-.3168.0880597-.5632.299403-.7392.2113432-.2112.4579104-.2992.7573134-.2992zm-.7044776 3.432h1.4089552v9.0992h-1.4089552zm4.9137313-4.9808c1.0743284.88 1.9725373 1.7776 2.6946269 2.6576l-.880597.88c-.6516418-.8448-1.5498508-1.7424-2.6946269-2.6928zm-.2641791 4.1184c1.0391045.88 1.9197015 1.7424 2.6241791 2.6048l-.880597.88c-.6340298-.8272-1.5146269-1.7072-2.6065672-2.64zm2.0077612 4.9456 1.1271642.44c-.7925373 2.2176-1.6731343 4.312-2.659403 6.2656l-1.1447761-.4928c1.0391045-2.0416 1.9373134-4.1008 2.6770149-6.2128zm1.4970149-6.424h2.4656717c-.2817911-.9504-.5811941-1.848-.9334329-2.6752l1.3032836-.2112c.2817911.8448.5459702 1.8128.8277612 2.8864h2.2014926v1.232h-.8101493c-.299403 2.3232-.7044776 4.2592-1.1976119 5.808.8453731 1.4608 1.5674626 2.7984 2.1310447 3.9952l-1.0038806.704c-.4931343-1.056-1.0391044-2.1472-1.6555223-3.2736-.8277612 1.7776-2.0253732 3.3792-3.6104478 4.7872l-.7749254-1.0032c1.5146269-1.3552 2.6417911-2.8512 3.3814926-4.4704.0880597-.2112.1761194-.4048.2465671-.616-.7044776-1.232-1.4970149-2.4992-2.36-3.8192l.9862687-.616c.6692537 1.0208 1.2856716 2.0064 1.8492537 2.9392.3522388-1.2848.6340299-2.7632.8453731-4.4352h-3.8922388zm6.9038806-1.408h1.18v11h-1.18zm2.4656717 14.4672h-2.3247761l-.2817911-1.2144c.7573134.0352 1.479403.0704 2.1662687.0704.5283582 0 .7925373-.2816.7925373-.8272v-13.9744h1.2152239v14.3088c0 1.0912-.5283582 1.6368-1.5674627 1.6368zm16.4495519-9.5392v6.2656h-1.250447v-5.104h-6.9567169v5.1392h-1.2680597v-6.3008zm-5.494925 2.288h1.250448v1.2144c-.070448 1.7072-.669254 3.08-1.796418 4.1008-1.1095524.9328-2.9235823 1.672-5.4420898 2.2l-.7220895-1.1264c2.5008955-.4928 4.2444776-1.1264 5.2483583-1.9184.915821-.8448 1.391343-1.9184 1.461791-3.256zm6.481194 7.1104h-3.416716c-1.091941 0-1.637911-.5632-1.637911-1.672v-3.3792h1.215224v3.1152c0 .5104.264179.7744.792537.7744h2.817911c.36985 0 .63403-.1056.810149-.2992.211343-.2464.352239-.9328.422687-2.0944l1.162388.3696c-.105672 1.5136-.352239 2.4288-.704478 2.7632-.317015.2816-.792537.4224-1.461791.4224zm-8.8411941-15.8576h1.2504481v5.72h-1.2504481zm-3.4519403.7392h1.2152239v4.5408h-1.2152239zm8.5946274 1.7424c-.563583 1.0736-1.232836 1.9712-1.99015 2.6752l-.951045-.88c1.197612-1.1792 2.095821-2.6576 2.677015-4.4176l1.215224.3168c-.140895.4048-.281791.792-.422686 1.1616h5.195522v1.144zm1.567462.5456c1.021493.5984 1.972538 1.32 2.853135 2.1648l-.774926.8976c-.898209-.8976-1.849254-1.672-2.870746-2.3232zm7.819702-2.3584h5.371641v4.2768h-5.371641zm4.209253 3.2032v-2.112h-3.064477v2.112zm3.117314-3.2032h5.477313v4.2768h-5.477313zm4.332537 3.2032v-2.112h-3.170149v2.112zm-13.085671 2.8336h5.935223c.334627-.4576.598806-.9328.81015-1.4256l1.215224.1232c-.17612.4576-.405075.88-.651642 1.3024h4.54388c-.246567-.44-.510746-.8448-.792537-1.1968l1.074328-.352c.369851.4928.686866 1.0032.968657 1.5488h2.430448v1.1264h-4.755224c1.144776 1.056 2.853134 1.9008 5.125075 2.5168l-.510747 1.0736c-.440298-.1408-.845373-.2992-1.232835-.44v5.1744h-1.127165v-.7568h-3.293432v.7568h-1.127165v-5.544h4.702388c-1.690746-.7744-2.994029-1.7072-3.874626-2.7808h-2.976418c-.986269 1.1264-2.307165 2.0416-3.962687 2.7808h4.420597v5.544h-1.127164v-.7568h-3.011642v.7568h-1.109552v-5.192c-.475523.176-.951045.3344-1.444179.4928l-.581194-1.0384c2.254328-.6688 3.980298-1.5312 5.213134-2.5872h-4.860895zm2.782686 7.6032h3.011642v-2.64h-3.011642zm6.956717 0h3.293432v-2.64h-3.293432zm17.647164-14.3088h1.215224v1.144h4.367761v1.0384h-4.367761v1.1792h3.733731v1.0208h-3.733731v1.1968h4.808059v1.056h-10.778507v-1.056h4.755224v-1.1968h-3.557612v-1.0208h3.557612v-1.1792h-4.26209v-1.0384h4.26209zm-2.201493 11.0704v1.2848h5.688657v-1.2848zm5.688657-.9856v-1.3024h-5.688657v1.3024zm-5.688657 3.256v2.7984h-1.215224v-8.3952h8.119105v6.864c0 .9504-.510747 1.4256-1.497015 1.4256h-1.479403l-.299403-1.1264 1.408955.0528c.422687 0 .651642-.2112.651642-.616v-1.0032zm-5.741492-13.1472c1.18.88 2.166268 1.7776 2.976418 2.6752l-.862986.88c-.739701-.8448-1.743582-1.7424-3.011641-2.6928zm-2.131045 5.192h3.733731v7.7264c.528358-.4928 1.074329-1.0384 1.673135-1.6544l.334626 1.3376c-.986268 1.0208-2.042985 1.936-3.134925 2.728l-.493134-1.1264c.264179-.2464.405074-.5104.405074-.8096v-6.9872h-2.518507zm24.762388-5.3504h1.250448v1.7072h6.833432v1.1968h-6.833432v2.2352h5.618209v5.6496h-11.659105v-5.6496h4.790448zm5.600597 9.6096v-3.2736h-9.122985v3.2736zm-10.426269 1.9536 1.074329.5104c-.669254 1.5312-1.426568 2.8512-2.307165 3.9776l-1.039104-.7568c.880597-1.0384 1.63791-2.288 2.27194-3.7312zm3.839403.5104c.352239 1.1616.669254 2.4288.951045 3.784l-1.26806.2816c-.246567-1.4432-.528358-2.7104-.862985-3.8192zm3.680896-.176c.528358 1.1968.986268 2.5168 1.373731 3.9248l-1.250448.2816c-.352238-1.496-.792537-2.816-1.320895-3.96zm3.610448-.352c1.127164 1.4784 1.972537 2.7632 2.571343 3.8544l-1.056717.7392c-.616418-1.1968-1.461791-2.4992-2.536119-3.9424zm5.81194-8.976h5.759104v-2.4816h1.303284v2.4816h5.688657v1.2144h-5.688657v2.9216h7.132836v1.232h-7.132836v6.2128h4.156418v-4.6816h1.215224v6.6704h-1.215224v-.8096h-9.598508v.8096h-1.215224v-6.6704h1.215224v4.6816h4.138806v-6.2128h-7.115224v-1.232h7.115224v-2.9216h-5.759104zm22.807463-2.9568.45791.7568c-.915821.5808-1.408955 1.3376-1.479403 2.2704.070448-.0352.158507-.0352.281791-.0352.317015 0 .563582.088.774925.2816.193732.176.299403.4224.299403.7392s-.105671.5808-.299403.7744c-.211343.176-.45791.2816-.757313.2816-.862985 0-1.285672-.5808-1.285672-1.7072 0-1.5312.669254-2.6576 2.007762-3.3616zm-3.487165 0 .475523.7568c-.933433.5808-1.426567 1.3376-1.479403 2.2704.070447-.0352.158507-.0352.281791-.0352.299403 0 .563582.088.774925.2816.193731.176.299403.4224.299403.7392s-.105672.5808-.299403.7744c-.211343.176-.475522.2816-.774925.2816-.845373 0-1.26806-.5808-1.26806-1.7072 0-1.5312.651642-2.6576 1.990149-3.3616zm40.75403 0c.845373 0 1.26806.5632 1.26806 1.7072 0 1.5136-.669254 2.64-1.990149 3.3616l-.475523-.7568c.915821-.5984 1.408955-1.3552 1.479403-2.2704-.070448.0176-.176119.0352-.281791.0352-.317015 0-.563582-.1056-.757313-.2816-.211344-.1936-.317015-.44-.317015-.7392 0-.3168.08806-.5808.299403-.7744.193731-.1936.45791-.2816.774925-.2816zm-3.469552 0c.845373 0 1.26806.5632 1.26806 1.7072 0 1.5136-.669254 2.64-1.99015 3.3616l-.475522-.7568c.915821-.5984 1.408955-1.3552 1.479403-2.2704-.070448.0176-.176119.0352-.281791.0352-.317015 0-.563582-.1056-.774925-.2816-.211344-.1936-.299403-.44-.299403-.7392 0-.3168.088059-.5808.299403-.7744.193731-.1936.45791-.2816.774925-.2816zm23.142089 2.3584v3.4672h-1.215223v-2.3232h-7.027165v2.3936h-1.197612v-3.5376h4.050747c-.228955-.704-.493135-1.3376-.774926-1.936l1.285672-.2112c.264179.6336.510746 1.3376.757313 2.1472zm-6.164179 2.2528 1.232836.1056c-.246567 1.0032-.510746 1.9184-.757313 2.728h6.252239v1.2144h-2.113433c-.281791 1.76-.898209 3.2384-1.831642 4.4 1.655522.9152 2.976418 1.7424 3.99791 2.4464l-.862985 1.0032c-1.056716-.7744-2.377612-1.6192-3.962686-2.552-1.232836 1.0912-3.205373 1.9536-5.952836 2.6048l-.510746-1.1968c2.324776-.528 4.068358-1.232 5.26597-2.112-1.021493-.5808-2.113433-1.1792-3.275821-1.7952.475522-.88.898209-1.8128 1.285672-2.7984h-2.465672v-1.2144h2.888358c.299403-.9152.563582-1.848.810149-2.8336zm3.399105 4.048h-3.346269c-.352239.9152-.704477 1.7248-1.074328 2.3936.951045.4928 1.849254.9504 2.677015 1.3904.862985-.9856 1.444179-2.2352 1.743582-3.784zm-10.725672 7.6736h-1.497015l-.264179-1.232c.457911.0352.898209.0704 1.320896.0704.422686 0 .651642-.2288.651642-.6864v-4.2416c-.704478.264-1.408956.5104-2.095821.7216l-.317015-1.2672c.827761-.1936 1.63791-.44 2.412836-.7216v-4.0304h-2.060598v-1.2144h2.060598v-3.3264h1.303283v3.3264h1.655522v1.2144h-1.655522v3.52c.54597-.2464 1.09194-.5104 1.637911-.792v1.2848c-.545971.264-1.091941.5104-1.637911.7568v5.0864c0 1.0208-.510746 1.5312-1.514627 1.5312zm29.464776-14.0096h-3.046865l-.457911 5.2272h3.240597zm-4.737612 5.2272.457911-5.2272h-2.236717v-1.1968h7.819702l-.63403 13.6048h1.585075v1.232h-9.757015v-1.232h2.131045l.528358-5.9488h-2.131045v-1.232zm.581194 7.1808h3.557612l.281791-5.9488h-3.293432zm-7.432238-14.344 1.232835.2464c-.158507.5984-.334626 1.1616-.510746 1.7248h3.240597v1.1792h-3.663283c-.475523 1.1968-1.021493 2.288-1.637911 3.256l-1.039104-.6512c1.09194-1.7248 1.884477-3.6432 2.377612-5.7552zm-.528359 5.5088h4.191642v1.144h-1.831642v2.1648h2.430448v1.1616h-2.430448v4.1536c.72209-.2992 1.461791-.6864 2.201493-1.1616l.228955 1.1264c-1.056716.6336-2.289552 1.144-3.663283 1.5488l-.545971-1.0912c.352239-.1408.528359-.3344.528359-.5808v-3.9952h-2.412836v-1.1616h2.412836v-2.1648h-1.109553z" fill="#fff"/><g fill="#f39700"><rect height="1" rx=".5" width="17.61194" x="138.69403" y="15.4"/><rect height="1" rx=".5" width="17.61194" x="138.69403" y="22.647059"/><rect height="1" rx=".5" width="17.61194" x="138.69403" y="29.894118"/></g><g fill="#f39700" transform="translate(198.134328 53.9)"><path d="m7.277156 1.288045h1v12.438462h-1z"/><path d="m5.13681592 7.50727564v.88846153h-4.28067993v13.32692313h13.69817581v-13.32692313h-4.28068v-.88846153h5.136816v15.10384616h-15.4104478v-15.10384616z"/><path d="m9.62952419 1.8211001h1.02915261v6.21923077h-5.99295187v-1.06801088h4.96379926z" transform="matrix(-.70710678 -.70710678 .70710678 -.70710678 9.593653 13.835251)"/></g><path d="m157.17151 172.489366c.366056-.18206.34741-.544189.161928-.873488.846936-.10844 1.694852-.219864 2.540806-.342232 1.18355-.172111.053976-1.922072-.846935-1.820596-16.871971 1.925056-34.109998 2.016583-50.575675 6.522309.991199-2.89803 2.249335-5.851773 1.300335-8.706029 2.849942.126347 5.724419-.802853 8.642076-.677501 6.765668.2905 13.471472-.122367 20.242047.293484 6.225906.382027 12.431203.07163 18.622761-.702371.055939.130326.122673.250705.166836.39297.199221.643675 1.295428.824739 1.065784-.050738-.052995-.201957-.117767-.388991-.189408-.568066.165854-.227823-.114822-.680485-.451437-.846627-.5957-.882442-1.463245-1.477368-2.506457-2.065331-1.430859-.806833-3.057996-1.290335-4.543812-1.985743-1.69289-1.904164-1.029473-2.372744 1.989267-1.404744 1.964733.185044 3.974609.86354 5.818631 1.495276 3.805811 1.300284 7.322114 3.375564 11.148534 4.612176 4.846079 1.566906 9.860956 2.382693 14.655021 4.020234-6.168985.421821-11.935604 1.878298-18.142863 2.768698-5.386823.772013-10.256455 3.007465-15.35475 4.550495.560371-.345217 1.132518-.680485 1.720368-1.006799 1.74294-.96999 2.828352-2.75875 4.536943-3.605377zm9.818756 1.804678c7.285802-1.159013 14.077968-2.943794 21.527661-2.964686 1.002976-.002985.203147-1.383852-.265955-1.593768-7.231826-3.235288-15.158472-3.928706-22.433479-7.055554-5.883403-2.527942-11.545994-5.173278-18.083-4.601233-.449474.0388-.498543.458631-.393535.817776 1.206122 4.112756 6.869695 3.606371 9.240721 6.215892-6.031592.483502-12.296754.524292-18.293016.103466-5.134606-.36014-9.987555-.437739-15.108422-.310397-3.036405.075609-6.083605-.188029-9.112159-.393965-2.010858-.135301-3.63505 1.133147-5.837278.782956-.824363-.131322-.856749.71232-.530929 1.247555 1.810655 2.964686-.929372 7.337101-1.670317 10.321684-.207073.829714.676174 1.744987 1.504463 1.497266 15.367507-4.594268 31.288515-4.610186 47.056428-6.412874-1.02751.807827-1.903887 1.799703-3.09627 2.47024-2.030485 1.145085-3.89021 2.227494-5.477109 3.962531-.557427.60985.4112 1.733048 1.096207 1.609686 6.83829-1.236613 12.942505-4.593274 19.875989-5.696575z" fill="#fff" transform="matrix(0 1 -1 0 316.5 21.5)"/></g></svg>