<?xml version="1.0" encoding="UTF-8"?>
<svg width="18px" height="20px" viewBox="0 0 18 20" version="1.1" xmlns="http://www.w3.org/2000/svg" xmlns:xlink="http://www.w3.org/1999/xlink">
    <!-- Generator: Sketch 62 (91390) - https://sketch.com -->
    <title>路径@3x</title>
    <desc>Created with Sketch.</desc>
    <g id="页面-1" stroke="none" stroke-width="1" fill="none" fill-rule="evenodd">
        <g id="M站-文章" transform="translate(-111.000000, -1771.000000)" fill="#7EC9F0" fill-rule="nonzero">
            <g id="编组-10" transform="translate(15.000000, 1741.000000)">
                <path d="M96.6169824,41.5431491 C95.908901,43.3059675 95.7917414,44.9868029 96.3620311,45.2990975 C96.7565584,45.5158062 97.3708572,45.0199985 97.9490611,44.1180707 C98.1784854,45.1058681 98.7439486,45.9921583 99.5525832,46.7086298 C98.7058637,47.0385053 98.1511283,47.5773392 98.1511283,48.186428 C98.1511283,49.189863 99.6492479,50 101.496948,50 C103.163968,50 104.544905,49.3421238 104.799742,48.4753348 C104.867174,48.4753348 105.131892,48.4753348 105.196282,48.4753348 C105.45606,49.3421238 106.834,50 108.502987,50 C110.352723,50 111.848807,49.1898401 111.848807,48.186428 C111.848807,47.5773392 111.295078,47.0424375 110.446368,46.7086298 C111.252098,45.9921583 111.82145,45.1058909 112.048976,44.1180707 C112.627065,45.0199985 113.238482,45.5158291 113.634999,45.2990975 C114.208194,44.9868029 114.093939,43.3059675 113.379064,41.5431491 C112.820532,40.1629487 112.063638,39.1439218 111.48644,38.9155307 C111.494263,38.8316044 111.501102,38.7388305 111.501102,38.6500117 C111.501102,38.11511 111.35853,37.6212228 111.115427,37.2190577 C111.120299,37.1868681 111.120299,37.1565988 111.120299,37.1244091 C111.120299,36.8774541 111.064601,36.648057 110.96892,36.4498894 C110.82342,32.8569469 108.599698,30 104.999041,30 C101.399277,30 99.1726494,32.8569698 99.0271492,36.4499351 C98.9334352,36.6510062 98.8757932,36.8813864 98.8757932,37.1273584 C98.8757932,37.1595937 98.8757932,37.1898173 98.8797046,37.2220527 C98.6414511,37.6212685 98.498833,38.1151329 98.498833,38.6520007 C98.498833,38.7418254 98.5036822,38.8316273 98.5095836,38.919463 C97.934399,39.145888 97.1746,40.1629487 96.6169824,41.5431491 Z" id="路径"></path>
            </g>
        </g>
    </g>
</svg>