<?xml version="1.0" encoding="UTF-8"?>
<svg width="20px" height="16px" viewBox="0 0 20 16" version="1.1" xmlns="http://www.w3.org/2000/svg" xmlns:xlink="http://www.w3.org/1999/xlink">
    <!-- Generator: Sketch 62 (91390) - https://sketch.com -->
    <title>形状@3x</title>
    <desc>Created with Sketch.</desc>
    <g id="页面-1" stroke="none" stroke-width="1" fill="none" fill-rule="evenodd">
        <g id="M站-文章" transform="translate(-155.000000, -1773.000000)" fill="#FF7F7D" fill-rule="nonzero">
            <g id="编组-10" transform="translate(15.000000, 1741.000000)">
                <path d="M154.815322,39.8371819 C154.586617,39.7915285 154.438127,39.7232754 154.369852,39.6324226 C154.301578,39.5415698 154.29012,39.4580164 154.33548,39.3817622 L154.404224,39.2680827 C154.419335,39.25303 154.434694,39.2302033 154.450302,39.1996026 C154.46591,39.1690019 154.496394,39.104395 154.541754,39.0057819 C154.587114,38.9071689 154.621493,38.8085559 154.644891,38.7099428 C154.668289,38.6113298 154.687302,38.48989 154.701929,38.3456236 C154.716557,38.2013571 154.712662,38.0646101 154.690244,37.9353826 C154.667827,37.806155 154.621983,37.6657618 154.552714,37.5142029 C154.483445,37.362644 154.388105,37.225897 154.266695,37.1039619 C154.053114,36.8912016 153.774905,36.7544546 153.432068,36.6937209 C153.089231,36.6329873 152.746401,36.6291072 152.403578,36.6820806 C152.060755,36.7350539 151.736958,36.803307 151.432188,36.8868399 C151.127418,36.9703727 150.876033,37.050046 150.678033,37.1258599 L150.381053,37.2628614 C150.228426,37.3085149 150.102609,37.3388817 150.003602,37.3539619 C149.904595,37.3690421 149.828281,37.365162 149.774662,37.3423215 C149.721042,37.319481 149.679101,37.2966543 149.648838,37.2738414 C149.618575,37.2510284 149.607118,37.1978349 149.614466,37.1142608 C149.621814,37.0306867 149.629369,36.9585534 149.637132,36.8978611 C149.644895,36.8371687 149.663907,36.742195 149.69417,36.61294 C149.724433,36.4836849 149.747348,36.3811849 149.762914,36.3054398 C149.762914,36.1232802 149.751457,35.9525339 149.728542,35.793201 C149.705628,35.6338681 149.656131,35.4555886 149.580052,35.2583625 C149.503974,35.0611364 149.393516,34.9017966 149.24868,34.7803431 C149.103843,34.6588896 148.920967,34.5602765 148.700052,34.484504 C148.479137,34.4087314 148.193366,34.3859047 147.842739,34.4160238 C147.492112,34.446143 147.09589,34.5372228 146.654074,34.6892633 C146.120584,34.8714229 145.57954,35.1407891 145.03094,35.4973619 C144.48234,35.8539346 144.006152,36.225794 143.602374,36.61294 C143.198597,37.000086 142.828958,37.3758392 142.493455,37.7401997 C142.157952,38.1045603 141.898763,38.4006471 141.715887,38.6284601 L141.46426,38.9927794 C140.96149,39.6456729 140.588197,40.2985594 140.344381,40.9514391 C140.100565,41.6043189 139.986212,42.0976386 140.001323,42.4313984 L140.001323,42.9094178 C140.093009,43.6380839 140.317813,44.2909705 140.675733,44.8680776 C141.033653,45.4451847 141.460351,45.9120178 141.955829,46.2685768 C142.451306,46.6251358 143.034292,46.9287489 143.704786,47.1794162 C144.37528,47.4300835 145.019227,47.6122569 145.636626,47.7259364 C146.254026,47.8396159 146.905535,47.9192892 147.591153,47.9649564 C148.719099,48.0562908 149.888731,47.9690911 151.100049,47.7033573 C152.311367,47.4376236 153.439071,46.9783169 154.483162,46.3254372 C155.527253,45.6725575 156.262631,44.890691 156.689295,43.9798378 C156.948236,43.4483979 157.081615,42.947311 157.089433,42.4765772 C157.097251,42.0058433 157.01727,41.6225637 156.849491,41.3267383 C156.681712,41.030913 156.464464,40.7690731 156.197747,40.5412188 C155.93103,40.3133645 155.679645,40.1462575 155.443592,40.039898 C155.207538,39.9335385 154.998094,39.8652854 154.81526,39.8351387 L154.815322,39.8371819 Z M147.843568,46.9191381 C146.19774,46.9949244 144.799631,46.6760109 143.64924,45.9623975 C142.498849,45.2487842 141.923694,44.345478 141.923694,43.2524789 C141.923694,42.1745463 142.495223,41.2447603 143.63828,40.4631209 C144.781337,39.6814815 146.183341,39.2525347 147.844293,39.1762806 C149.505245,39.1000264 150.907249,39.3732727 152.050306,39.9960195 C153.193363,40.6187663 153.764891,41.468879 153.764891,42.5463575 C153.764891,43.6393704 153.181905,44.6223499 152.015934,45.4952962 C150.849962,46.3682424 149.459415,46.8426018 147.844293,46.9183744 L147.843568,46.9191381 Z M147.180864,40.6110198 C146.739061,40.6566732 146.342839,40.7591733 145.992198,40.91852 C145.641557,41.0778667 145.367258,41.26004 145.169299,41.4650401 C144.97134,41.6700402 144.803588,41.890093 144.666045,42.1251985 C144.528501,42.360304 144.433161,42.5917771 144.380025,42.8196176 C144.326889,43.0474582 144.29251,43.2560976 144.276888,43.4455359 C144.261266,43.6349743 144.253711,43.7828938 144.254198,43.8892946 L144.276888,44.0714749 L144.276888,44.1625754 C144.276888,44.2082288 144.292247,44.2993086 144.322966,44.4358148 C144.353685,44.572321 144.395626,44.6976547 144.44879,44.8118157 C144.501954,44.9259768 144.58949,45.0513104 144.711398,45.1878167 C144.833306,45.3243229 144.978142,45.4382363 145.145907,45.5295569 C146.151945,46.0153434 147.089212,46.163263 147.957706,45.9733156 C148.826201,45.7833682 149.527199,45.3469019 150.060702,44.6639168 C150.274283,44.4059708 150.415218,44.0870573 150.483506,43.7071763 C150.551794,43.3272952 150.536435,42.9440156 150.437428,42.5573375 C150.338421,42.1706593 150.167016,41.8177397 149.923214,41.4985785 C149.679412,41.1794173 149.317569,40.932637 148.837686,40.7582377 C148.357802,40.5838383 147.805287,40.5345318 147.180139,40.6103181 L147.180864,40.6110198 Z M146.357922,44.9152996 C146.266236,44.9303523 146.1787,44.9342324 146.095315,44.92694 C146.011929,44.9196475 145.935616,44.9043472 145.866375,44.8810389 C145.797133,44.8577306 145.728617,44.8312645 145.660826,44.8016407 C145.593035,44.7720169 145.535983,44.7302367 145.48967,44.6763002 C145.443357,44.6223637 145.401416,44.5691701 145.363846,44.5167196 C145.326276,44.4642691 145.295792,44.4035423 145.272394,44.3345393 C145.248996,44.2655363 145.237539,44.1934031 145.238007,44.1181396 C145.238007,43.9510327 145.283865,43.7878128 145.375552,43.6284799 C145.467238,43.4691469 145.593055,43.3323999 145.753003,43.2182389 C145.91295,43.1040778 146.091917,43.0394709 146.289903,43.0244182 C146.426936,43.0093655 146.560315,43.0132456 146.690041,43.0360586 C146.819767,43.0588716 146.930224,43.0967647 147.021414,43.1497381 C147.112603,43.2027115 147.192583,43.2634382 147.261355,43.3319184 C147.330127,43.4003985 147.379624,43.4800718 147.409845,43.5709384 C147.440067,43.6618049 147.455426,43.760418 147.455923,43.8667775 C147.455923,44.0338844 147.406427,44.1932242 147.307433,44.3447969 C147.20844,44.4963696 147.075061,44.6253426 146.907296,44.7317159 C146.739531,44.8380891 146.556655,44.8988159 146.358668,44.9138961 L146.357922,44.9152996 Z M148.300743,43.2757803 C148.193946,43.3515667 148.083489,43.3858136 147.969371,43.3785212 C147.855253,43.3712287 147.775272,43.3219222 147.729429,43.2306016 L147.683351,43.1395012 C147.66824,43.1089004 147.660685,43.0785336 147.660685,43.0484007 L147.660685,42.9573003 C147.660685,42.9116468 147.66824,42.8737537 147.683351,42.8436208 L147.729429,42.7525203 C147.74454,42.7219196 147.767455,42.6990929 147.798173,42.6840402 L147.866917,42.5929397 C147.988839,42.5016054 148.106852,42.4637122 148.220956,42.4792602 C148.33506,42.4948083 148.415041,42.555535 148.460898,42.6614405 C148.506727,42.7221741 148.52574,42.7904272 148.517936,42.8661998 C148.510132,42.9419724 148.487217,43.0141056 148.449192,43.0825995 C148.411166,43.1510934 148.36167,43.2157003 148.300702,43.2764202 L148.300743,43.2757803 Z M156.41579,38.5161015 C156.507476,38.5161015 156.591352,38.4932748 156.667416,38.4476214 C156.743481,38.401968 156.804442,38.3451351 156.850299,38.2771228 C156.896156,38.2091105 156.92664,38.1369772 156.941751,38.0607231 C156.956862,38.0456704 156.964417,38.0228437 156.964417,37.992243 C157.147279,36.2614031 156.537704,35.2745435 155.135693,35.031664 C154.724112,34.9558776 154.343015,34.9483513 153.992402,35.0090849 C153.885604,35.0090849 153.794173,35.035551 153.718109,35.0884831 C153.642044,35.1414152 153.577188,35.2096683 153.52354,35.2932424 C153.469893,35.3768165 153.443325,35.4640162 153.443829,35.5548414 C153.443829,35.7068819 153.497235,35.8358549 153.604032,35.9417604 C153.710829,36.0476659 153.8403,36.1008594 153.992443,36.101341 C155.181343,35.827847 155.821388,36.2074804 155.912577,37.2402411 C155.943296,37.4981871 155.927936,37.7410803 155.866499,37.9689209 C155.866499,38.1209614 155.919898,38.2499344 156.026695,38.3558399 C156.133492,38.4617453 156.262962,38.5149389 156.415106,38.5154204 L156.41579,38.5161015 Z M156.027379,32.0950468 C155.356857,31.9430063 154.457623,31.9733731 153.329677,32.1861473 C153.314566,32.1861473 153.299207,32.1936736 153.283599,32.2087263 L153.260933,32.2546274 L153.238267,32.2772064 C153.070515,32.3228599 152.933241,32.4178336 152.826444,32.5621275 C152.719646,32.7064215 152.666248,32.8621082 152.666248,33.0291876 C152.666248,33.2570145 152.742561,33.4467142 152.895188,33.5982869 C153.047815,33.7498595 153.230691,33.8258798 153.443815,33.8263476 L153.51256,33.8263476 C153.52767,33.8263476 153.562049,33.8188212 153.615697,33.8037685 C153.669344,33.7887158 153.726396,33.7773025 153.786853,33.7695285 C153.847309,33.7617544 153.912165,33.7464541 153.981421,33.7236274 C154.050676,33.7008007 154.111637,33.6779739 154.164303,33.6551472 C154.21697,33.6323205 154.319865,33.6209072 154.472989,33.6209072 C154.626113,33.6209072 154.812884,33.6323205 155.033302,33.6551472 C155.25372,33.6779739 155.49755,33.7348068 155.764792,33.8256458 C156.032033,33.9164849 156.298778,34.0303983 156.565025,34.1673861 C156.831273,34.3043738 157.098017,34.4940736 157.365259,34.7364853 C157.632501,34.978897 157.864866,35.2596765 158.062356,35.5788239 C158.458826,36.4746107 158.535139,37.3400306 158.291296,38.1750837 C158.291296,38.1901364 158.287401,38.2054367 158.279611,38.2209848 C158.27182,38.2365328 158.260363,38.274426 158.245238,38.3346643 C158.230114,38.3949026 158.214755,38.4517354 158.19916,38.5051629 C158.183566,38.5585903 158.168207,38.6268434 158.153082,38.7099222 C158.137958,38.793001 158.130402,38.8651342 158.130416,38.9263219 C158.130416,39.0628281 158.168455,39.1767415 158.244534,39.2680621 C158.320613,39.3593827 158.415953,39.4239896 158.530554,39.4618827 C158.645155,39.4997759 158.778534,39.5187019 158.930691,39.5187019 C159.357397,39.5187019 159.608782,39.2605082 159.684847,38.744121 C159.867709,38.1519474 159.970604,37.5864944 159.993533,37.047762 C160.016461,36.5090296 159.978422,36.0346702 159.879415,35.6246837 C159.780408,35.2146973 159.631918,34.8314177 159.433945,34.4748449 C159.235972,34.1182722 159.007267,33.814659 158.747829,33.5640055 C158.488392,33.313352 158.198725,33.0855252 157.878831,32.8805251 C157.558936,32.675525 157.25025,32.512305 156.952773,32.3908653 C156.655296,32.2694255 156.34661,32.1708125 156.026716,32.0950262 L156.027379,32.0950468 Z" id="形状"></path>
            </g>
        </g>
    </g>
</svg>