<?xml version="1.0" encoding="UTF-8"?>
<svg width="23px" height="20px" viewBox="0 0 23 20" version="1.1" xmlns="http://www.w3.org/2000/svg" xmlns:xlink="http://www.w3.org/1999/xlink">
    <!-- Generator: Sketch 62 (91390) - https://sketch.com -->
    <title>形状@3x</title>
    <desc>Created with Sketch.</desc>
    <g id="页面-1" stroke="none" stroke-width="1" fill="none" fill-rule="evenodd">
        <g id="M站-文章" transform="translate(-15.000000, -1771.000000)" fill="#6FD384" fill-rule="nonzero">
            <g id="编组-10" transform="translate(15.000000, 1741.000000)">
                <path d="M17.5334374,42.2410355 C16.9270107,42.2410355 16.433914,41.7395705 16.433914,41.1165544 C16.433914,40.4979102 16.9269843,39.9964451 17.5334374,39.9964451 C18.1398906,39.9964451 18.6329609,40.4979102 18.6329609,41.1165544 C18.6329345,41.7395705 18.1398642,42.2410355 17.5334374,42.2410355 M13.1407352,42.2410355 C12.544986,42.2410355 12.0604525,41.7395705 12.0604525,41.1165544 C12.0604525,40.4979102 12.544986,39.9964451 13.1407352,39.9964451 C13.7375416,39.9964451 14.2220487,40.4979102 14.2220487,41.1165544 C14.2220487,41.7395705 13.7375416,42.2410355 13.1407352,42.2410355 M23,43.1213149 C23,39.7739413 20.096129,37.0333305 16.4157304,36.7967191 C16.2435417,36.7869564 16.071353,36.780439 15.8991378,36.780439 C11.9759836,36.780439 8.79721846,39.6198301 8.79721846,43.1213149 C8.79721846,43.6488227 8.87100986,44.1600505 9.00791508,44.6489903 C9.77159784,47.412935 12.5663676,49.462164 15.8991378,49.462164 C17.0328612,49.462164 18.1024399,49.2255525 19.0511562,48.8033424 L20.6458907,49.9207428 C20.6458907,49.9207428 21.0704819,50.2257469 21.028776,49.6390996 L20.5784953,47.888384 C22.0641021,46.7275342 23,45.0228964 23,43.1213149 M5.46976053,35.5745573 C4.86225016,35.5745573 4.36917989,35.0736556 4.36917989,34.4544212 C4.36917989,33.8325048 4.86222374,33.3310398 5.46976053,33.3310398 C6.0794117,33.3310398 6.56928399,33.832478 6.56928399,34.4544212 C6.56928399,35.0736556 6.07943813,35.5745573 5.46976053,35.5745573 M10.9598719,33.3310666 C11.5662986,33.3310666 12.0604525,33.8325048 12.0604525,34.454448 C12.0604525,35.0736556 11.566325,35.5745842 10.9598719,35.5745842 C10.3513043,35.5745842 9.86034839,35.0736824 9.86034839,34.454448 C9.86034839,33.8325048 10.3513043,33.3310666 10.9598719,33.3310666 M15.8991378,36.2518583 C16.0520858,36.2518583 16.2018094,36.2589121 16.3526166,36.265966 C15.7675714,32.7210854 12.3492221,30 8.21962638,30 C3.68037213,30 0,33.2887437 0,37.3410434 C0,39.6002779 1.14337015,41.6196555 2.93918092,42.9671768 L2.33167055,45.3181377 C2.33167055,45.3181377 2.1241719,46.0979739 2.91031981,45.747938 L5.17459494,44.1600236 C6.11686239,44.4980974 7.14259445,44.6853321 8.21965277,44.6853321 C8.31162771,44.6853321 8.4014883,44.6788415 8.49023882,44.6788415 C8.35975597,44.1768401 8.289189,43.6553133 8.289189,43.1213149 C8.2891626,39.3343515 11.7042874,36.2518583 15.8991378,36.2518583" id="形状"></path>
            </g>
        </g>
    </g>
</svg>